<svg xmlns="http://www.w3.org/2000/svg" width="18" height="24" fill="none" viewBox="0 0 18 24">
  <path fill="#000" d="M9 0C4.03 0 0 4.084 0 9.123c0 5.036 4.032 9.122 9 9.124 4.967-.002 9-4.088 9-9.124C18 4.083 13.966 0 9 0Zm0 1.046c4.397 0 7.968 3.617 7.968 8.077 0 4.459-3.57 8.076-7.968 8.078a7.913 7.913 0 0 1-5.634-2.366 8.134 8.134 0 0 1-2.334-5.712c0-2.142.84-4.196 2.334-5.711A7.913 7.913 0 0 1 9 1.046Zm-2.264 1.54C5.657 2.693 4.58 4.1 5.246 5.375c.623 1.194 1.922 1.078 2.32 2.44.372-.516 1.107-1.1 2.351-.493.805-3.024-.894-4.958-3.181-4.736ZM14.1 7.699c-1.33-.05-1.905 1.143-3.267.814.254.583.396 1.534-.745 2.324 2.18 2.218 4.663 1.683 5.618-.436.449-1-.185-2.65-1.606-2.702Zm-5.33.233a1.21 1.21 0 0 0-.946 1.19c0 .667.518 1.192 1.175 1.192s1.175-.525 1.175-1.191S9.657 7.932 9 7.932c-.083 0-.152-.017-.23 0ZM6.993 9.21c-2.984.804-3.77 3.274-2.436 5.172.63.893 2.368 1.134 3.124-.088.71-1.142-.046-2.222.917-3.254-.624-.068-1.501-.433-1.605-1.83Zm.173 10.14c0 1.86-3.669 2.18-3.669 3.72V24h11.006v-.93c0-1.54-3.669-1.86-3.669-3.72 0 0-.347.291-1.834.291s-1.834-.29-1.834-.29Z"/>
</svg>
